PathFileType	4	(X/Y/Z)	C:\Users\Basilio\Documents\Thesis Gigler\squatting_fais\c3dfiles\038\SJ_pre4\markers_experimental.trc
DataRate	CameraRate	NumFrames	NumMarkers	Units	OrigDataRate	OrigDataStartFrame	OrigNumFrames
200.000000	200.000000	4	61	mm	200.000000	1505	2007
Frame#	Time	FHD			LBHD			RBHD			C7			T10			CLAV			LSHO			LUUPA			LMUPA			LDUPA			LLEP			LMEP			LRAD			LUL			LRFIN			RSHO			RUPA1			RMUPA			RDUPA			RLEP			RMEP			RRAD			RUL			RUFIN			LASI			RASI			USACR			LSACR			RSACR			LTHI1			LTHI2			LTHI3			LTHI4			LLFC			LMFC			LTIB1			LTIB2			LTIB3			LTIB4			LLMAL			LMMAL			LHEE			LMT1			LMT2			LMT5			RTHI			RTHI2			RTHI3			RTHI4			RLFC			RMFC			RTIB1			RTIB2			RTIB3			RTIB4			RLMAL			RMMAL			RHEE			RMT1			RMT2			RMT5			
		X1	Y1	Z1	X2	Y2	Z2	X3	Y3	Z3	X4	Y4	Z4	X5	Y5	Z5	X6	Y6	Z6	X7	Y7	Z7	X8	Y8	Z8	X9	Y9	Z9	X10	Y10	Z10	X11	Y11	Z11	X12	Y12	Z12	X13	Y13	Z13	X14	Y14	Z14	X15	Y15	Z15	X16	Y16	Z16	X17	Y17	Z17	X18	Y18	Z18	X19	Y19	Z19	X20	Y20	Z20	X21	Y21	Z21	X22	Y22	Z22	X23	Y23	Z23	X24	Y24	Z24	X25	Y25	Z25	X26	Y26	Z26	X27	Y27	Z27	X28	Y28	Z28	X29	Y29	Z29	X30	Y30	Z30	X31	Y31	Z31	X32	Y32	Z32	X33	Y33	Z33	X34	Y34	Z34	X35	Y35	Z35	X36	Y36	Z36	X37	Y37	Z37	X38	Y38	Z38	X39	Y39	Z39	X40	Y40	Z40	X41	Y41	Z41	X42	Y42	Z42	X43	Y43	Z43	X44	Y44	Z44	X45	Y45	Z45	X46	Y46	Z46	X47	Y47	Z47	X48	Y48	Z48	X49	Y49	Z49	X50	Y50	Z50	X51	Y51	Z51	X52	Y52	Z52	X53	Y53	Z53	X54	Y54	Z54	X55	Y55	Z55	X56	Y56	Z56	X57	Y57	Z57	X58	Y58	Z58	X59	Y59	Z59	X60	Y60	Z60	X61	Y61	Z61	

1506	7.525	-216.1286773681641	1794.202270507813	-901.6264648437502	-353.2393798828126	1698.78759765625	-954.3980102539065	-334.4805908203126	1691.765014648438	-809.4560546875002	-378.5215759277344	1550.49267578125	-875.227233886719	-384.7817687988282	1264.101196289063	-887.2097167968752	-229.3661804199219	1537.169555664063	-898.0751953125002	-275.7160339355469	1589.55029296875	-1052.229370117188	-282.4248657226563	1418.092041015625	-1233.0634765625	-241.2133178710938	1391.708374023438	-1216.36572265625	-262.1069030761719	1357.369506835938	-1260.98388671875	-246.206039428711	1296.016967773438	-1275.956665039063	-326.0278930664063	1269.317993164063	-1265.694580078125	-247.2386169433594	1066.959106445313	-1087.223510742188	-197.9492492675782	1036.85791015625	-1130.637329101563	-233.1993103027344	1028.871337890625	-1023.873657226563	-236.7581481933594	1565.559326171875	-733.4893188476564	-198.0911560058594	1388.999877929688	-581.5421142578126	-183.3901519775391	1348.38720703125	-605.5708007812501	-194.2772369384766	1325.371337890625	-551.5834960937501	-188.0345611572266	1251.130859375	-533.2182006835939	-271.4435119628907	1240.135986328125	-520.3059692382814	-245.5624389648438	1016.732543945313	-677.0724487304689	-186.8641662597657	987.2986450195315	-650.5217895507814	-220.1188659667969	1002.476623535156	-744.3545532226564	-242.8478698730469	1068.004028320313	-1010.095092773438	-238.7734985351563	1076.566284179688	-769.1446533203127	-401.9494018554689	1131.380004882813	-888.6081542968752	-419.0201110839845	1102.860717773438	-915.1040039062502	-415.7339172363282	1103.129150390625	-858.2770996093752	-290.9889526367188	751.0847167968751	-1111.5703125	-253.4391784667969	674.7431030273439	-1124.6552734375	-206.1112670898438	683.2200317382814	-1110.325561523438	-273.6231689453126	620.7835693359376	-1107.352783203125	-263.6160888671876	562.8303833007814	-1109.843872070313	-226.406234741211	537.4483642578126	-999.4314575195315	-241.9285583496094	363.7980957031251	-1068.085083007813	-312.8180847167969	338.2027893066407	-1115.22021484375	-272.1972961425782	324.1790466308594	-1101.264526367188	-289.3940124511719	245.1087799072266	-1073.363403320313	-401.6628723144532	133.576904296875	-1068.085083007813	-342.3522644042969	136.3820190429688	-1017.368957519531	-437.3151855468751	97.24262237548831	-1004.266235351563	-246.1168823242188	45.89731216430665	-1073.238891601563	-258.8685913085938	42.6275863647461	-1122.190063476563	-317.1170959472657	31.44214630126954	-1147.712280273438	-304.8984375000001	806.5540771484377	-686.8450317382814	-265.8654785156251	753.9965820312501	-670.7847900390626	-233.3878631591797	757.9263305664064	-667.8854980468751	-286.5950012207032	671.1260375976564	-687.6568603515626	-256.8878479003907	539.7836914062501	-678.4860229492189	-239.8100128173829	529.7283325195314	-793.6353149414065	-239.3075256347657	358.5271606445313	-693.4196166992189	-338.2027893066407	298.7527770996094	-680.5623779296876	-291.8377990722657	291.4509582519532	-676.7103881835939	-286.4458312988282	238.278305053711	-703.8448486328126	-382.6929016113282	136.9967041015625	-692.1836547851564	-336.2578735351563	137.2335205078125	-762.5441894531251	-433.1828002929689	105.2967681884766	-768.632019042969	-234.0436706542969	46.40332412719727	-714.7837524414064	-245.9212799072266	45.95478439331055	-669.6280517578126	-300.3679504394532	34.27688598632813	-639.0573120117189	
1507	7.53	-214.1945953369141	1782.951782226563	-901.802917480469	-351.0118408203126	1687.171875	-954.780700683594	-332.3736267089844	1680.258666992188	-809.3873291015627	-377.1561889648438	1538.899536132813	-875.4460449218752	-384.631561279297	1251.954711914063	-887.3181152343752	-228.1117553710938	1525.011962890625	-898.214538574219	-274.0364379882813	1577.415771484375	-1052.559326171875	-281.2750854492188	1405.413452148438	-1233.469848632813	-240.3156738281251	1378.24560546875	-1216.681274414063	-261.4892578125001	1344.48046875	-1261.390625	-246.2096405029297	1282.908325195313	-1276.321044921875	-325.7364807128907	1256.728271484375	-1266.281616210938	-247.8355407714844	1054.456176757813	-1086.821533203125	-198.9896240234376	1024.3544921875	-1130.04248046875	-234.9426269531251	1016.9912109375	-1023.63916015625	-235.5236358642579	1553.12060546875	-733.2297973632814	-197.4102935791016	1376.085693359375	-581.4556884765626	-182.9742279052735	1335.31640625	-605.2686767578126	-193.9578704833985	1312.647583007813	-551.3069458007814	-187.9792022705078	1238.646484375	-532.5587768554689	-271.1506958007813	1227.85791015625	-519.8244628906251	-246.2521209716797	1004.81201171875	-676.7344970703126	-187.2801055908203	975.455017089844	-650.4851074218751	-220.6680755615235	990.1756591796877	-744.1329345703126	-244.284896850586	1055.044555664063	-1010.279357910156	-240.2895507812501	1063.917236328125	-768.6499023437502	-404.3472900390626	1118.7578125	-888.1682128906252	-421.511444091797	1090.317138671875	-914.6592407226565	-418.0845031738282	1090.526489257813	-857.7417602539065	-287.3061828613282	741.2611083984376	-1114.180908203125	-248.3005676269532	665.5407714843751	-1126.7578125	-201.4827270507813	675.1315917968751	-1111.833740234375	-267.5658264160157	611.2606201171876	-1110.641723632813	-256.3021545410157	553.3195800781251	-1113.322875976563	-220.5751037597657	527.8981323242189	-1003.29443359375	-241.3003845214844	355.5166320800782	-1068.48291015625	-312.9721679687501	330.6972656250001	-1114.616333007813	-272.8272094726563	315.9168395996094	-1101.22509765625	-290.6824035644532	237.3962097167969	-1071.764770507813	-405.0743408203126	127.024040222168	-1066.493774414063	-347.2149963378907	130.5707092285157	-1015.017822265625	-441.6490478515626	87.76418304443361	-1003.758483886719	-246.8918609619141	46.06294250488282	-1072.275756835938	-259.7492370605469	44.51397323608399	-1121.238159179688	-317.3697509765626	31.17769432067872	-1147.73681640625	-303.4348449707032	794.396911621094	-685.8439331054689	-263.7924499511719	742.6702880859376	-668.8054199218751	-230.8768463134766	747.0960693359376	-665.0926513671876	-281.6644897460938	659.6806030273439	-685.9602661132814	-249.6837005615235	530.9623413085939	-676.2546997070314	-234.4950714111329	520.0772705078126	-790.7969970703127	-238.5102539062501	350.3912048339844	-693.5942382812501	-338.7905578613282	293.9879760742188	-681.9732055664064	-293.0126342773438	285.0253601074219	-678.0393676757814	-288.1615905761719	231.4903259277344	-704.6729125976564	-386.9546508789064	132.072982788086	-695.7745361328126	-341.4401245117188	130.7142028808594	-766.8087158203126	-437.9424133300782	93.79058074951173	-772.113464355469	-235.3706054687501	47.53393936157227	-715.6539306640626	-248.4585418701172	47.70264053344727	-670.8262329101564	-301.6544799804688	34.35423660278321	-639.0289916992189	
1508	7.535	-212.4033203125001	1772.203125	-902.245788574219	-348.8651428222657	1675.726440429688	-954.9873657226565	-330.4012756347657	1669.177124023438	-809.6947021484377	-375.9943237304688	1528.109497070313	-875.8198242187502	-384.5135498046876	1239.800903320313	-887.4426879882815	-226.5134277343751	1512.662475585938	-898.5742187500002	-272.1785278320313	1565.1806640625	-1053.040771484375	-280.1024169921876	1392.584716796875	-1233.897094726563	-239.7100677490235	1364.963989257813	-1217.074829101563	-261.0263977050782	1331.462158203125	-1261.852416992188	-246.1788177490235	1269.719604492188	-1276.57666015625	-325.8046264648438	1244.268676757813	-1266.669067382813	-251.5635986328126	1043.290405273438	-1086.876586914063	-200.4942779541016	1012.574645996094	-1129.888549804688	-236.6116485595704	1004.929504394531	-1023.292236328125	-234.366439819336	1540.87939453125	-732.8991699218751	-196.9059600830079	1363.0966796875	-581.4166259765626	-182.7047729492188	1322.311767578125	-605.1739501953126	-193.6615600585938	1299.811279296875	-551.0252075195314	-187.9397888183594	1225.867065429688	-532.1095581054689	-270.8060302734376	1215.47998046875	-519.5578613281251	-246.7047271728516	992.7696533203127	-676.5292968750001	-187.9022674560547	963.1630859375002	-650.3607177734376	-221.4348907470704	978.1829223632815	-744.1387329101564	-246.429183959961	1041.84375	-1009.91748046875	-243.3346862792969	1051.367553710938	-767.3848266601564	-406.7908020019532	1106.191284179688	-887.7209472656252	-424.4811096191407	1077.764892578125	-914.3208007812502	-420.9308471679689	1077.809326171875	-857.2837524414065	-283.5344238281251	732.2128295898439	-1116.103637695313	-243.5590515136719	657.3573608398439	-1128.362915039063	-196.9496154785157	666.9489746093751	-1112.198852539063	-262.2193908691407	602.5208129882814	-1113.359008789063	-250.6700439453126	544.3820800781251	-1115.756469726563	-214.247787475586	519.0111694335939	-1006.947631835938	-239.9650268554688	348.3097839355469	-1067.605224609375	-311.0749511718751	323.3271789550782	-1115.057495117188	-271.1506958007813	308.8464660644532	-1100.525512695313	-290.8818359375001	230.7005004882813	-1069.836181640625	-407.3753967285157	121.4659576416016	-1066.708374023438	-349.2274169921876	124.8944931030274	-1013.085388183594	-444.4779357910157	79.99483489990236	-1003.503845214844	-246.9411010742188	46.36846923828126	-1072.661254882813	-260.6243896484376	45.31715393066407	-1121.410522460938	-318.0921936035157	30.86899948120118	-1148.732543945313	-300.9886474609376	782.4500732421877	-684.4700317382814	-260.2158813476563	731.5228271484376	-667.3018798828126	-227.5226135253907	736.1118164062501	-662.9171752929689	-276.6140747070313	648.4808349609376	-683.4125976562501	-243.8125457763672	522.2870483398439	-674.6397094726564	-227.7701873779297	512.0057983398439	-788.6595458984377	-236.2096405029297	342.4514160156251	-694.7978515625001	-336.9667053222657	287.8341369628907	-682.2650756835939	-291.1838378906251	277.5230102539063	-679.3649291992189	-288.1725158691407	224.0173034667969	-707.3979492187501	-389.7066040039064	126.474723815918	-698.8272705078126	-343.5973815917969	126.3631362915039	-769.4833984375002	-440.2227172851564	84.97903442382814	-774.0852661132815	-235.8541717529297	47.73407745361329	-715.9072265625001	-249.0999908447266	48.72079849243165	-671.3345947265626	-302.4017333984376	33.58113479614259	-639.1517944335939	
1509	7.54	-209.7092285156251	1761.55078125	-902.3572998046877	-347.0195312500001	1664.52587890625	-955.347595214844	-328.1692504882813	1658.180297851563	-810.034118652344	-374.7160949707032	1517.659545898438	-876.1624755859377	-384.4447021484376	1227.734375	-887.3562622070315	-225.3533630371094	1500.636840820313	-898.8342895507815	-270.0890808105469	1553.054443359375	-1053.799560546875	-279.0653686523438	1379.982055664063	-1234.363647460938	-238.8664855957032	1351.789794921875	-1217.339599609375	-260.4587707519532	1318.433715820313	-1262.328125	-246.3900909423829	1256.801635742188	-1276.810546875	-325.9026489257813	1231.824829101563	-1266.944702148438	-253.1632690429688	1031.114501953125	-1086.763671875	-201.1510620117188	1000.776550292969	-1129.017944335938	-238.3755645751954	993.3005981445315	-1023.133544921875	-233.3097839355469	1528.982543945313	-732.5936279296876	-196.3285064697266	1350.218383789063	-581.4813232421876	-182.5219268798828	1309.138916015625	-605.1251220703126	-193.3881530761719	1287.018798828125	-550.9055175781251	-188.3307342529297	1212.946044921875	-532.3502197265626	-270.5729064941407	1203.002807617188	-519.4666137695314	-247.4935760498047	980.8020019531252	-676.1389770507814	-188.695297241211	951.1011962890627	-650.2033691406251	-223.1721191406251	966.6315917968752	-742.8088378906251	-248.4880523681641	1028.98388671875	-1009.703430175781	-245.1658782958985	1038.625366210938	-766.7927246093751	-409.3948974609376	1093.484619140625	-887.380310058594	-427.3992614746095	1065.362426757813	-914.2586059570315	-423.6612243652345	1065.31982421875	-856.853454589844	-280.6517944335938	723.8532104492189	-1117.904296875	-240.2945251464844	649.2148437500001	-1129.528076171875	-193.9036865234376	659.5616455078126	-1112.88818359375	-258.1949157714844	594.1875610351564	-1115.893432617188	-247.4336090087891	536.3733520507814	-1117.670532226563	-208.0427398681641	510.2188720703126	-1009.530639648438	-238.7360229492188	341.2920227050782	-1065.952758789063	-306.5168762207032	315.4301757812501	-1117.317016601563	-267.6679992675782	301.0244445800782	-1099.53515625	-290.5313720703126	224.135482788086	-1068.49560546875	-409.0969848632814	115.2741775512696	-1067.1650390625	-351.0449218750001	119.2410736083985	-1011.92626953125	-446.3655700683595	73.80391693115236	-1003.984130859375	-247.6742248535157	46.67223358154298	-1072.896118164063	-261.6548767089844	46.19472122192384	-1121.795043945313	-318.4828186035157	30.2307357788086	-1149.899047851563	-297.5602416992188	771.2847290039065	-682.7449340820314	-256.0818176269532	721.1440429687501	-665.8567504882814	-224.0180053710938	726.3946533203126	-661.2154541015626	-271.4794616699219	637.5715942382814	-680.4031372070314	-238.6864166259766	513.9692382812501	-673.1485595703126	-220.1163787841797	504.8198242187501	-787.0096435546877	-232.8419647216797	334.2507934570313	-695.8720092773439	-333.8538208007813	280.3602905273438	-681.3370361328126	-288.0779113769532	269.5775451660157	-680.2466430664064	-286.3722839355469	217.1043548583985	-709.9142456054689	-390.7395324707032	120.7328796386719	-700.1511230468751	-344.9057006835938	121.8682479858399	-771.4003906250002	-442.0280151367189	78.3931121826172	-775.5130615234377	-235.8435821533204	47.76667022705079	-715.8260498046876	-249.3663482666016	48.92917251586915	-671.3045654296876	-302.6347961425782	33.18356323242188	-638.7963867187501	
